<svg version="1.2" xmlns="http://www.w3.org/2000/svg" viewBox="0 0 1200 1200" width="1200" height="1200">
	<style>
		.s0 { fill: #8383ff } 
	</style>
	<g id="Layer 1">
		<path id="Path 0" fill-rule="evenodd" class="s0" d="m1187.99 0.75c-0.01 0.41-1.88 2.77-4.15 5.25-2.26 2.48-7.35 9.45-11.29 15.5-3.95 6.05-8.15 12.58-9.35 14.5-1.19 1.92-4.88 9.01-8.18 15.75-3.31 6.74-6.02 12.47-6.02 12.75 0 0.28-1.58 3.88-3.5 8-1.92 4.13-3.5 7.95-3.5 8.5 0 0.55-0.45 1.79-0.99 2.75-0.55 0.96-1.9 4.34-3 7.5-1.11 3.16-2 5.86-1.99 6 0.01 0.14-1.59 4.97-3.55 10.75-1.95 5.78-5.37 17.03-7.59 25-2.22 7.97-5.6 20.8-7.51 28.5-1.91 7.7-3.63 14.9-3.83 16-0.2 1.1-1.71 8.53-3.36 16.5-1.64 7.97-4.39 22.82-6.1 33-1.72 10.18-4.27 25.93-5.69 35-1.41 9.07-2.71 18.07-2.89 20-0.18 1.93-0.7 6.99-1.16 11.26-0.76 7.04-0.68 7.76 0.91 7.75 1.25-0.01 1.91-1.08 2.32-3.76 0.31-2.06 1.23-6.68 2.04-10.25 0.81-3.57 1.71-7.85 1.99-9.5 0.29-1.65 2.29-10.2 4.45-19 2.16-8.8 5.08-20.05 6.48-25 1.4-4.95 3.38-12.15 4.4-16 1.02-3.85 4.66-15.55 8.09-26 3.43-10.45 8.25-24.18 10.71-30.5 2.46-6.32 5.09-12.85 5.83-14.5 0.74-1.65 2.3-5.47 3.46-8.5 1.16-3.03 4.07-9.55 6.46-14.5 2.39-4.95 5.29-11.03 6.44-13.5 1.16-2.47 4.13-8.1 6.6-12.5 2.47-4.4 4.72-8.79 4.99-9.75 0.27-0.96 0.94-1.75 1.49-1.75 0.55 0 1.22-0.79 1.49-1.75 0.27-0.96 1.28-2.95 2.25-4.41 0.97-1.47 3.23-5.07 5.04-8 1.8-2.94 4.5-6.97 6-8.96 1.49-2 4.93-6.5 7.63-10 2.7-3.51 5.28-6.49 5.75-6.63 0.46-0.14 0.84-10.6 0.84-23.25v-23c-9.3 0-12.01 0.34-12.01 0.75zm8.28 114.5c-1.05 1.79-4.4 8.42-7.45 14.75-3.05 6.32-6.67 13.97-8.04 17-1.37 3.03-3.18 7.07-4.02 9-0.83 1.93-2.76 6.65-4.28 10.5-1.52 3.85-3.12 7.68-3.57 8.5-0.44 0.82-2.23 5.32-3.96 10-1.74 4.68-3.54 9.4-4.02 10.5-0.48 1.1-1.81 4.47-2.96 7.5-1.15 3.03-2.32 6.63-2.6 8-0.28 1.38-1.04 3.13-1.69 3.9-0.65 0.78-1.07 1.56-0.93 1.75 0.14 0.19-0.92 4.06-2.34 8.6-1.42 4.54-3.17 9.6-3.87 11.25-0.71 1.65-2.08 5.7-3.05 9-0.97 3.3-3.24 10.73-5.04 16.5-1.8 5.77-4.38 14.1-5.72 18.5-1.35 4.4-3.23 10.7-4.18 14-0.95 3.3-3.77 12.3-6.27 20-2.5 7.7-5.63 16.7-6.96 20-1.32 3.3-2.81 6.9-3.31 8-0.5 1.1-1.88 4.25-3.07 7-1.2 2.75-3.47 7.7-5.06 11-1.58 3.3-4 7.8-5.37 10-1.37 2.2-2.98 5.13-3.58 6.5-0.59 1.38-4.31 6.98-8.26 12.46-3.94 5.48-11.45 14.23-16.67 19.43-5.22 5.21-11.77 11.07-14.54 13.04-2.76 1.96-5.91 4.14-7 4.83-1.08 0.69-3.54 2.04-5.46 3-1.92 0.96-4.09 2.3-4.82 2.99-0.73 0.69-1.85 1.25-2.5 1.26-0.65 0-2.53 0.7-4.18 1.55-1.65 0.85-7.72 3.09-13.5 4.97-5.77 1.88-15.9 4.43-22.5 5.67-11.05 2.08-14.8 2.26-47.5 2.23-28.46-0.01-40.46-0.46-60.5-2.25-13.75-1.23-32.42-2.92-41.5-3.76-9.08-0.84-21.09-1.84-26.7-2.22-9.83-0.67-10.2-0.63-9.91 1.3 0.21 1.49 1.16 2.06 3.7 2.25 1.88 0.14 5.89 0.7 8.91 1.25 3.02 0.55 7.98 1.2 11 1.45 3.02 0.25 13.15 1.59 22.5 2.98 9.35 1.39 19.48 2.98 22.5 3.53 3.02 0.55 12.48 1.87 21 2.95 8.52 1.07 21.35 2.54 28.5 3.27 7.23 0.73 24.98 1.31 40 1.32 16.54 0 31.07-0.51 37.5-1.33 5.77-0.73 15.23-2.46 21-3.85 5.78-1.38 11.4-2.7 12.5-2.92 1.1-0.22 5.15-1.58 9-3.03 3.85-1.45 12.17-5.12 18.5-8.17 6.33-3.05 11.61-5.91 11.75-6.37 0.14-0.46 0.81-0.83 1.5-0.83 0.69 0 2.45-1.01 3.91-2.25 1.46-1.24 5.51-4.27 9-6.75 3.48-2.48 11.28-9.48 17.34-15.57 6.05-6.1 13.06-13.75 15.58-17 2.52-3.26 7.35-10.09 10.75-15.18 3.39-5.09 6.17-9.48 6.17-9.75 0-0.27 0.85-1.74 1.89-3.25 1.05-1.51 4.83-8.6 8.42-15.75 3.59-7.15 7.17-14.57 7.96-16.5 0.79-1.93 2.36-5.75 3.49-8.5 1.13-2.75 3.41-8.6 5.06-13 1.64-4.4 4.11-11.37 5.47-15.5 1.37-4.12 3.47-10.87 4.67-15 1.2-4.12 3.1-10.87 4.22-15 1.12-4.12 3.28-12.68 4.79-19 1.52-6.32 3.99-16 5.5-21.5 1.5-5.5 3.59-12.7 4.64-16 1.76-5.54 1.91-9.48 1.9-51.25-0.01-26.83-0.38-45.25-0.93-45.25-0.5 0-1.77 1.46-2.81 3.25zm-131.46 258.87c-2.92 3.37-5.76 6.53-6.31 7.03-0.55 0.5-2.58 2.31-4.5 4.01-1.92 1.7-6.42 5.02-10 7.36-3.58 2.34-10.89 6.34-16.25 8.87-5.36 2.54-10.56 4.61-11.55 4.61-0.99 0-2.23 0.42-2.75 0.94-0.52 0.51-4.55 1.89-8.95 3.06-4.4 1.18-11.15 2.8-15 3.6-3.85 0.8-12.63 2.12-19.5 2.92-6.88 0.8-20.71 1.47-30.75 1.47-10.04 0.01-24.89-0.67-33-1.51-8.11-0.83-16.55-1.75-18.75-2.05-2.2-0.29-8.27-1.24-13.5-2.1-5.23-0.86-11.3-1.91-13.5-2.32-2.2-0.41-7.38-1.45-11.5-2.29-4.13-0.85-14.02-2.5-22-3.68-7.98-1.17-18.55-2.85-23.5-3.71-4.95-0.87-11.48-1.9-14.5-2.3-3.02-0.39-6.17-1.01-7-1.37-0.83-0.36-4.42-0.89-8-1.18-3.58-0.29-10.55-0.94-15.5-1.44-4.95-0.51-11.92-1.19-15.5-1.51-3.58-0.32-7.85-0.83-9.5-1.15-1.65-0.31-7.73-0.94-13.5-1.41-5.77-0.46-18.15-1.29-27.5-1.84-9.35-0.54-29.6-1.53-45-2.19-17.68-0.75-43.84-0.97-71-0.6-29.31 0.41-50.96 1.24-68 2.62-13.75 1.11-29.27 2.49-34.5 3.06-5.23 0.57-12.65 1.49-16.5 2.04-3.85 0.55-11.95 1.72-18 2.58-6.05 0.87-13.25 1.96-16 2.43-2.75 0.46-7.93 1.14-11.5 1.5-3.57 0.36-8.41 1.27-10.75 2.04-2.34 0.76-7.06 1.84-10.5 2.39-3.44 0.56-8.27 1.43-10.75 1.95-2.48 0.52-6.3 1.38-8.5 1.92-2.2 0.54-7.38 1.87-11.5 2.96-4.13 1.09-11.22 2.81-15.76 3.83-4.54 1.01-8.25 2.18-8.25 2.59 0.01 0.41-0.89 0.75-1.99 0.75-1.1 0-4.14 0.51-6.75 1.13-2.61 0.63-5.65 1.46-6.75 1.87-1.1 0.4-3.8 1.26-6 1.93-2.2 0.66-4.9 1.55-6 1.98-1.1 0.42-4.93 1.74-8.5 2.93-3.57 1.19-7.18 2.17-8 2.17-0.82 0.01-3.3 0.84-5.5 1.85-2.2 1-7.15 2.87-11 4.16-3.85 1.28-9.81 3.6-13.25 5.16-3.44 1.55-6.7 2.82-7.25 2.82-0.55 0-4.26 1.41-8.25 3.14-3.99 1.72-9.61 4.2-12.5 5.5-2.89 1.3-7.73 3.48-10.75 4.86-3.03 1.37-5.84 2.49-6.25 2.47-0.41-0.02-4.13 1.61-8.25 3.63-4.13 2.01-8.4 4.05-9.5 4.53-1.1 0.47-2.68 1.3-3.5 1.84-0.82 0.53-6.68 3.71-13 7.06-6.32 3.35-13.53 7.25-16 8.66-2.48 1.42-6.41 3.87-8.75 5.44-2.34 1.58-4.48 2.87-4.75 2.87-0.28 0-3.76 2.11-7.75 4.68-3.99 2.58-10.4 6.74-14.24 9.25-3.85 2.51-11.72 8.06-17.5 12.33-5.78 4.27-12.71 9.45-15.39 11.5-2.69 2.06-9.21 7.31-14.5 11.66-5.29 4.36-13.67 11.55-18.62 15.98-4.95 4.42-14.63 13.68-21.51 20.57-6.89 6.89-16.14 16.58-20.57 21.53-4.42 4.95-11.5 13.16-15.73 18.25l-7.69 9.25c0 166.01 0.26 184.93 1.25 184.68 0.69-0.18 2.15-2.09 3.25-4.25 1.11-2.16 4.66-8.88 7.9-14.93 3.24-6.05 7.12-13.25 8.63-16 1.5-2.75 3.88-7.02 5.28-9.5 1.4-2.48 3.76-6.75 5.24-9.5 1.49-2.75 3.55-6.24 4.58-7.75 1.03-1.51 1.86-3.09 1.84-3.5-0.02-0.41 0.89-1.65 2.03-2.75 1.14-1.1 2.05-2.34 2.03-2.75-0.02-0.41 1.47-3.11 3.29-6 1.83-2.89 5.32-8.38 7.75-12.2 2.44-3.82 4.88-7.73 5.43-8.7 0.55-0.97 4.51-6.84 8.81-13.05 4.3-6.22 9.4-13.55 11.35-16.3 1.94-2.75 6.06-8.38 9.15-12.5 3.09-4.13 9.43-12.23 14.09-18 4.66-5.77 9.85-12.1 11.53-14.07 1.69-1.96 5.32-6.2 8.07-9.43 2.75-3.22 7.23-8.37 9.95-11.43 2.72-3.06 13.07-13.7 23-23.64 9.93-9.94 22.77-22.25 28.55-27.37 5.78-5.11 15.9-13.62 22.5-18.9 6.6-5.28 13.12-10.87 14.5-12.42 1.37-1.55 2.95-2.79 3.5-2.77 0.55 0.03 2.57-1.29 4.5-2.92 1.93-1.63 4.4-3.82 5.5-4.87 1.1-1.05 4.25-3.04 7-4.42 2.75-1.38 5.68-3.26 6.5-4.18 0.82-0.92 1.84-1.65 2.25-1.62 0.41 0.02 4.7-2.55 9.53-5.71 4.83-3.16 9.67-6.3 10.75-6.98 1.08-0.67 6.24-3.68 11.47-6.68 5.23-3.01 12.87-7.29 17-9.53 4.12-2.23 12.9-6.71 19.5-9.95 6.6-3.24 15.04-7.29 18.75-9 3.71-1.71 6.98-3.11 7.25-3.11 0.27 0 2.86-1.06 5.75-2.36 2.89-1.29 7.05-2.96 9.25-3.7 2.2-0.74 4.43-1.71 4.95-2.14 0.52-0.44 1.54-0.8 2.25-0.8 0.72 0 3.66-1.08 6.55-2.4 2.89-1.32 9.3-3.63 14.25-5.12 4.95-1.49 9.58-3.22 10.29-3.85 0.72-0.62 1.28-0.79 1.25-0.38-0.02 0.41 2.77-0.19 6.21-1.33 3.44-1.14 6.93-2.22 7.75-2.39 0.82-0.18 4.43-1.27 8-2.44 3.57-1.16 7.29-2.11 8.25-2.1 0.96 0 1.98-0.44 2.25-0.99 0.27-0.55 1.62-1 3-1 1.37 0 4.64-0.64 7.25-1.42 2.61-0.79 9.02-2.4 14.25-3.6 5.23-1.19 12.2-2.59 15.5-3.11 3.3-0.51 7.57-1.17 9.5-1.47 1.93-0.29 3.73-0.7 4-0.91 0.27-0.2 3.43-0.83 7-1.39 3.57-0.57 12.69-1.94 20.25-3.06 7.56-1.12 20.16-2.69 28-3.49 7.84-0.79 19.87-1.7 26.75-2.01 6.87-0.32 15.42-0.86 19-1.21 3.58-0.35 22.25-0.62 41.5-0.61 19.25 0.01 43.1 0.54 53 1.18 9.9 0.63 28.12 2.05 40.5 3.14 12.37 1.09 23.62 2.21 25 2.49 1.37 0.27 7 0.99 12.5 1.59 5.5 0.6 13.15 1.5 17 2 3.85 0.51 10.15 1.36 14 1.9 3.85 0.55 9.25 1.18 12 1.41 2.75 0.22 8.15 0.91 12 1.51 3.85 0.61 13.3 2.03 21 3.17 7.7 1.14 15.8 2.26 18 2.5 2.2 0.24 9.62 1.3 16.5 2.37 6.87 1.07 15.2 2.13 18.5 2.36 3.3 0.23 12.08 0.96 19.5 1.63 10.41 0.93 17.85 0.95 32.5 0.05 10.45-0.63 24.17-2.06 30.5-3.16 6.33-1.11 15.33-3.07 20-4.37 4.67-1.3 11.87-3.59 16-5.08 4.12-1.49 9.52-3.66 12-4.81 2.48-1.16 6.3-3.19 8.5-4.51 2.2-1.32 7.15-4.43 11-6.92 3.85-2.48 10.83-8.42 15.5-13.2 4.67-4.77 9.72-10.21 11.21-12.08 1.49-1.86 2.74-3.84 2.77-4.39 0.04-0.55 1.14-2.35 2.44-4 1.3-1.65 2.61-4.69 2.92-6.75 0.3-2.06 0.15-3.75-0.34-3.75-0.49 0-3.28 2.75-6.19 6.12zm-490.81 47.55c-5.23 0.14-15.58 0.74-23 1.35-7.42 0.6-18.45 1.73-24.5 2.5-6.05 0.78-14.15 1.86-18 2.41-3.85 0.55-13.3 2.16-21 3.59-7.7 1.42-17.82 3.44-22.5 4.49-4.68 1.05-12.77 3-18 4.33-5.23 1.34-13.55 3.65-18.5 5.13-4.95 1.49-13.05 4.05-18 5.69-4.95 1.64-13.05 4.57-18 6.51-4.95 1.93-11.93 4.69-15.5 6.11-3.57 1.43-6.95 2.9-7.5 3.28-0.55 0.37-2.8 1.26-5 1.98-2.2 0.71-15.02 6.86-28.5 13.66-13.48 6.8-25.18 12.96-26 13.68-0.82 0.72-2.18 1.59-3 1.94-0.82 0.34-3.75 1.97-6.5 3.63-2.75 1.66-5.9 3.47-7 4.02-1.1 0.55-6.59 4.05-12.21 7.77-5.61 3.72-14.61 9.77-20 13.45-5.38 3.68-13.61 9.65-18.29 13.27-4.68 3.61-10.95 8.48-13.96 10.81-3 2.32-12.45 10.25-21 17.6-8.54 7.36-23.34 21.09-32.87 30.5-9.53 9.42-22.85 23.21-29.6 30.63-6.75 7.42-17.4 19.62-23.67 27.11-6.27 7.48-14.77 17.99-18.9 23.34-4.13 5.35-8.67 11.15-10.1 12.89-1.43 1.74-2.78 3.62-3 4.19-0.22 0.57-2.65 4.08-5.4 7.81-2.75 3.73-7.14 9.67-9.75 13.22-2.61 3.54-4.75 6.67-4.75 6.94 0 0.27-3.26 5.29-7.25 11.14-3.99 5.85-8.15 12.08-9.25 13.83-1.1 1.76-4.61 7.44-7.79 12.62-3.19 5.17-6.34 10.31-7 11.41-0.67 1.1-2.45 3.91-3.96 6.25-1.51 2.34-2.75 4.48-2.75 4.75 0 0.27-2.07 3.99-4.59 8.25-2.53 4.26-5.47 9.55-6.53 11.75-1.06 2.2-3.25 6.25-4.85 9-1.6 2.75-5.88 10.85-9.5 18l-6.59 13c0.05 109.74 0.32 122.43 1.31 122.18 0.69-0.18 2.19-2.99 3.33-6.25 1.15-3.26 2.35-6.6 2.68-7.43 0.33-0.83 1.61-4.42 2.83-8 1.23-3.58 2.62-6.95 3.09-7.5 0.47-0.55 0.85-1.79 0.84-2.75-0.01-0.96 0.42-2.54 0.96-3.5 0.54-0.96 3.28-7.6 6.08-14.75 2.8-7.15 5.89-14.8 6.88-17 0.98-2.2 3.71-8.5 6.06-14 2.36-5.5 5.6-12.92 7.2-16.5 1.59-3.58 3.33-7.29 3.85-8.25 0.52-0.96 1.37-2.54 1.88-3.5 0.51-0.96 1.91-4 3.12-6.75 1.2-2.75 4.77-10.17 7.92-16.5 3.15-6.33 7.16-14.2 8.91-17.5 1.75-3.3 3.61-6.67 4.12-7.5 0.51-0.83 1.77-3.3 2.8-5.5 1.02-2.2 3.14-6.25 4.69-9 1.56-2.75 3.88-6.69 5.17-8.75 1.29-2.06 2.34-3.98 2.34-4.25 0-0.27 1.35-2.52 3-5 1.65-2.48 3-4.73 3-5 0-0.27 4.35-7.59 9.66-16.25 5.31-8.66 11.95-19.15 14.75-23.31 2.8-4.16 5.54-8.28 6.09-9.16 0.55-0.88 3.44-5.13 6.43-9.44 2.98-4.31 10.63-14.82 16.98-23.34 6.36-8.53 14.15-18.65 17.32-22.5 3.17-3.85 8.13-9.86 11.02-13.35 2.89-3.49 9.73-11.36 15.21-17.5 5.47-6.13 18.07-19.31 28-29.29 9.92-9.98 22.77-22.35 28.55-27.5 5.77-5.15 14.55-12.77 19.5-16.94 4.94-4.18 17.09-13.63 26.99-21 9.9-7.38 18.73-13.87 19.62-14.42 0.9-0.55 6.18-4.04 11.75-7.75 5.57-3.71 10.36-6.75 10.63-6.75 0.27 0 2.52-1.35 5-3 2.48-1.65 4.73-3 5-3 0.27 0 2.52-1.35 5-3 2.48-1.65 4.84-3.01 5.25-3.03 0.41-0.01 1.43-0.63 2.25-1.38 0.82-0.75 6.45-3.97 12.5-7.16 6.05-3.18 15.27-7.91 20.5-10.51 5.23-2.6 14.45-7.03 20.5-9.85 6.05-2.82 11.34-5.11 11.75-5.1 0.41 0.02 1.54-0.43 2.5-0.99 0.96-0.56 6.25-2.82 11.75-5.02 5.5-2.19 10.34-3.98 10.75-3.98 0.41 0.01 2.66-0.83 5-1.87 2.34-1.04 13.48-4.86 24.75-8.47 11.27-3.62 26.8-8.15 34.5-10.05 7.7-1.91 18.5-4.23 24-5.16 5.5-0.93 12.25-2.06 15-2.53 2.75-0.46 10.85-1.57 18-2.46 7.15-0.89 16.71-2.03 21.25-2.53 6.26-0.69 8.25-1.27 8.25-2.41 0-1.21-1.38-1.46-7.25-1.29-3.99 0.11-11.52 0.32-16.75 0.46zm-162.5 64.83c-2.2 0.73-6.81 2.71-10.25 4.41-3.44 1.7-6.48 3.09-6.75 3.09-0.27 0-3.54 1.39-7.25 3.09-3.71 1.69-12.15 5.81-18.75 9.15-6.6 3.33-13.35 6.83-15 7.77-1.65 0.94-5.48 3.13-8.5 4.87-3.02 1.74-6.18 3.57-7 4.07-0.82 0.51-5.02 3.09-9.31 5.73-4.3 2.65-13.52 8.95-20.5 14-6.98 5.05-16.69 12.25-21.58 16-4.89 3.75-12.99 10.23-18 14.4-5.01 4.17-12.71 10.88-17.11 14.92-4.4 4.03-12.89 12.1-18.86 17.92-5.97 5.82-16.32 16.7-23 24.18-6.68 7.48-14.96 16.93-18.41 21-3.45 4.07-6.6 7.85-7 8.41-0.4 0.56-2.53 3.24-4.73 5.97-2.2 2.72-7.69 9.92-12.2 15.99-4.51 6.06-9.01 12.1-10 13.4-0.99 1.31-2.48 3.41-3.3 4.66-0.82 1.26-5.59 8.3-10.58 15.63-5 7.34-10.4 15.52-12 18.18-1.61 2.66-3.7 6.03-4.66 7.5-0.96 1.46-2.04 3.33-2.42 4.16-0.37 0.83-1.89 3.3-3.37 5.5-1.48 2.2-5.8 9.4-9.6 16-3.8 6.6-8.18 14.47-9.72 17.5-1.54 3.02-4.16 7.97-5.82 11-1.67 3.02-5.86 11.12-9.33 18-3.46 6.87-8.31 16.77-10.78 22-2.47 5.22-6.57 13.89-9.11 19.25-2.53 5.36-4.61 9.97-4.61 10.25 0 0.27-1.82 4.66-4.05 9.75-2.23 5.09-4.48 10.04-5 11-0.52 0.96-0.95 2.2-0.95 2.75 0 0.55-0.86 2.91-1.92 5.25-1.06 2.34-4.75 11.45-8.21 20.25-3.45 8.8-6.38 16.45-6.51 17-0.13 0.55-2.31 6.85-4.85 14-2.54 7.15-5.02 13.9-5.52 15-0.49 1.1-2.67 7.4-4.83 14-2.17 6.6-6.06 18.75-8.64 27-2.59 8.25-5.37 17.7-6.18 21-0.81 3.3-1.86 6.9-2.32 8-0.47 1.1-1.34 4.14-1.94 6.75-0.73 3.2-1.08 30.75-1.08 84.25v79.5h60c0.02-5.81 0.69-18.3 1.5-31.5 0.81-13.2 1.92-29.4 2.48-36 0.55-6.6 1.7-18.3 2.56-26 0.86-7.7 2.22-19.17 3.02-25.5 0.81-6.33 2.14-16.22 2.98-22 0.83-5.78 1.97-13.2 2.53-16.5 0.56-3.3 1.44-8.25 1.97-11 0.52-2.75 2.55-13.33 4.5-23.5 1.96-10.17 4.19-21.2 4.96-24.5 0.77-3.3 3.49-14.55 6.05-25 2.56-10.45 6.2-24.4 8.1-31 1.9-6.6 3.89-13.35 4.41-15 0.52-1.65 4.06-12.45 7.87-24 3.81-11.55 7.92-23.92 9.14-27.5 1.21-3.58 3-8.3 3.97-10.5 0.97-2.2 2.76-6.7 3.97-10 1.22-3.3 5.15-12.98 8.75-21.5 3.59-8.53 8.32-19.33 10.5-24 2.18-4.67 7.08-14.8 10.88-22.5 3.79-7.7 8.68-17.15 10.86-21 2.18-3.85 5.57-9.92 7.53-13.5 1.96-3.58 5.1-8.98 6.98-12 1.89-3.03 3.74-6.17 4.13-7 0.38-0.83 1.97-3.41 3.53-5.75 1.56-2.34 2.83-4.48 2.83-4.75 0-0.28 2.14-3.78 4.75-7.79 2.61-4.01 5.2-8.02 5.75-8.91 0.55-0.89 3.42-5.15 6.39-9.46 2.96-4.31 7.03-10.09 9.05-12.84 2.03-2.75 6.55-8.83 10.06-13.5 3.51-4.67 7.76-10.3 9.44-12.51 1.68-2.21 4.63-5.96 6.56-8.35 1.93-2.38 6.82-8.23 10.89-12.99 4.06-4.76 13.51-15.33 21-23.5 7.48-8.17 19.48-20.32 26.65-27 7.17-6.68 15.56-14.4 18.65-17.15 3.08-2.75 8.19-7.03 11.35-9.5 3.16-2.48 7.6-6.12 9.85-8.1 2.26-1.98 8.61-6.98 14.11-11.11 5.5-4.13 16.19-11.62 23.75-16.65 7.56-5.03 13.98-9.14 14.25-9.14 0.27 0 2.19-1.17 4.25-2.6 2.06-1.43 4.65-3.02 5.75-3.52 1.1-0.51 3.8-1.93 6-3.16 2.2-1.23 4-2.9 4-3.71 0-0.82-0.68-1.56-1.5-1.66-0.82-0.1-3.3 0.42-5.5 1.15z"/>
	</g>
</svg>